<svg width="662" height="128" viewBox="0 0 662 128" fill="none" xmlns="http://www.w3.org/2000/svg">
<path d="M201.91 29.0225C205.433 29.0225 208.691 29.5152 211.684 30.5C214.676 31.4659 217.308 32.8868 219.581 34.7617C221.854 36.6177 223.701 38.9002 225.121 41.6084C226.541 44.3165 227.422 47.4129 227.763 50.8975H213.559C213.369 49.4393 212.981 48.1233 212.394 46.9492C211.806 45.775 211.029 44.7708 210.063 43.9375C209.098 43.1043 207.952 42.4697 206.626 42.0342C205.319 41.5798 203.871 41.3526 202.28 41.3525C199.458 41.3525 197.024 42.0432 194.979 43.4258C192.952 44.8084 191.389 46.8073 190.291 49.4209C189.212 52.0344 188.672 55.1973 188.672 58.9092C188.672 62.7727 189.221 66.0114 190.319 68.625C191.437 71.2197 192.999 73.1801 195.007 74.5059C197.033 75.8126 199.429 76.4658 202.194 76.4658C203.747 76.4658 205.159 76.2669 206.428 75.8691C207.716 75.4714 208.843 74.8943 209.809 74.1367C210.793 73.3603 211.598 72.4225 212.223 71.3242C212.867 70.2069 213.312 68.9473 213.559 67.5459L227.763 67.6309C227.516 70.2065 226.768 72.7443 225.519 75.2441C224.288 77.7441 222.593 80.0265 220.434 82.0908C218.275 84.1363 215.641 85.7654 212.535 86.9775C210.066 87.9471 207.305 88.5268 204.254 88.7207L203.984 90.2441C206.068 90.5472 207.734 91.2952 208.984 92.4883C210.234 93.7003 210.869 95.2725 210.888 97.2041C210.907 100.159 209.496 102.489 206.655 104.193C203.833 105.917 199.903 106.778 194.865 106.778L194.809 101.068C197.403 101.068 199.411 100.775 200.831 100.188C202.251 99.6004 202.99 98.7098 203.047 97.5166C203.104 96.4183 202.677 95.5378 201.769 94.875C200.859 94.2311 199.448 93.7863 197.535 93.54L198.653 88.6377C194.681 88.2532 191.051 87.1525 187.763 85.3291C183.615 82.9996 180.339 79.6097 177.934 75.1592C175.528 70.7084 174.325 65.2917 174.325 58.9092C174.325 52.5077 175.547 47.0816 177.99 42.6309C180.433 38.1801 183.739 34.7989 187.905 32.4883C192.072 30.1779 196.74 29.0225 201.91 29.0225ZM615.993 67.9717C615.993 71.0586 616.684 73.8142 618.066 76.2383C619.449 78.6436 621.391 80.5383 623.891 81.9209C626.409 83.3034 629.355 83.9941 632.726 83.9941C636.097 83.9941 639.043 83.3035 641.562 81.9209C644.08 80.5383 646.021 78.6436 647.385 76.2383C648.767 73.8141 649.459 71.0587 649.459 67.9717V29.8184H654.771V68.3408C654.771 72.2991 653.843 75.8408 651.987 78.9658C650.131 82.0719 647.546 84.525 644.231 86.3242C640.936 88.1044 637.1 88.9941 632.726 88.9941C628.37 88.9941 624.535 88.0949 621.221 86.2959C617.906 84.4967 615.321 82.0435 613.465 78.9375C611.609 75.8314 610.681 72.2992 610.681 68.3408V29.8184H615.993V67.9717ZM389.537 29.0225C392.643 29.0225 395.493 29.5058 398.088 30.4717C400.683 31.4186 402.974 32.7635 404.963 34.5059C406.97 36.2293 408.618 38.2367 409.906 40.5283C411.213 42.82 412.104 45.3106 412.577 48H407.236C406.839 46.0114 406.119 44.1739 405.077 42.4883C404.054 40.7838 402.766 39.2972 401.213 38.0283C399.66 36.7595 397.898 35.775 395.929 35.0742C393.959 34.3735 391.829 34.0225 389.537 34.0225C385.863 34.0225 382.511 34.9789 379.48 36.8916C376.469 38.8044 374.054 41.6172 372.236 45.3291C370.437 49.0223 369.537 53.5493 369.537 58.9092C369.537 64.3069 370.437 68.8527 372.236 72.5459C374.054 76.2388 376.469 79.0413 379.48 80.9541C382.511 82.848 385.863 83.7959 389.537 83.7959C391.829 83.7959 393.959 83.4448 395.929 82.7441C397.898 82.0434 399.66 81.0683 401.213 79.8184C402.766 78.5495 404.054 77.0629 405.077 75.3584C406.119 73.6539 406.839 71.807 407.236 69.8184H412.577C412.104 72.4888 411.213 74.9795 409.906 77.29C408.618 79.5816 406.97 81.5891 404.963 83.3125C402.974 85.0359 400.683 86.3808 398.088 87.3467C395.493 88.3125 392.643 88.7959 389.537 88.7959C384.651 88.7959 380.313 87.574 376.525 85.1309C372.738 82.6688 369.765 79.2028 367.605 74.7334C365.465 70.2637 364.395 64.9887 364.395 58.9092C364.395 52.8296 365.465 47.5547 367.605 43.085C369.765 38.6155 372.738 35.1589 376.525 32.7158C380.313 30.2537 384.651 29.0225 389.537 29.0225ZM468.365 29.0225C473.27 29.0225 477.608 30.2537 481.377 32.7158C485.165 35.1589 488.138 38.6249 490.297 43.1133C492.456 47.583 493.535 52.8486 493.535 58.9092C493.535 64.9697 492.456 70.2448 490.297 74.7334C488.138 79.2028 485.165 82.6688 481.377 85.1309C477.608 87.574 473.27 88.7959 468.365 88.7959C463.46 88.7959 459.113 87.574 455.325 85.1309C451.556 82.6688 448.593 79.2029 446.434 74.7334C444.293 70.2448 443.223 64.9697 443.223 58.9092C443.223 52.8486 444.293 47.583 446.434 43.1133C448.593 38.6249 451.566 35.1589 455.354 32.7158C459.141 30.2537 463.479 29.0225 468.365 29.0225ZM528.77 29.0225C531.951 29.0225 534.859 29.5246 537.491 30.5283C540.143 31.5321 542.473 32.9144 544.48 34.6758C546.507 36.4182 548.164 38.4359 549.452 40.7275C550.759 43.0002 551.639 45.4244 552.094 48H546.64C546.109 46.0683 545.332 44.2598 544.31 42.5742C543.287 40.8697 542.018 39.3822 540.503 38.1133C539.007 36.8255 537.273 35.8222 535.304 35.1025C533.353 34.3829 531.175 34.0225 528.77 34.0225C524.982 34.0225 521.592 35.0079 518.6 36.9775C515.607 38.9472 513.239 41.7879 511.497 45.5C509.774 49.2121 508.912 53.6819 508.912 58.9092C508.912 64.1175 509.783 68.5779 511.525 72.29C513.268 76.002 515.654 78.8522 518.685 80.8408C521.734 82.8105 525.219 83.7959 529.14 83.7959C532.719 83.7958 535.882 83 538.628 81.4092C541.374 79.8183 543.515 77.5454 545.049 74.5908C546.533 71.7677 547.289 68.4342 547.32 64.5908H530.39V59.8184H552.491V64.5908C552.491 69.5528 551.488 73.8426 549.48 77.46C547.473 81.0774 544.717 83.8711 541.213 85.8408C537.709 87.8104 533.685 88.7958 529.14 88.7959C524.064 88.7959 519.622 87.574 515.815 85.1309C512.009 82.6688 509.045 79.2028 506.924 74.7334C504.822 70.2448 503.77 64.9697 503.77 58.9092C503.77 54.3448 504.376 50.225 505.588 46.5508C506.8 42.8766 508.515 39.7327 510.73 37.1191C512.965 34.5056 515.607 32.5075 518.656 31.125C521.705 29.7235 525.077 29.0225 528.77 29.0225ZM72.6064 66.125C72.6064 68.1325 73.042 69.9222 73.9131 71.4941C74.8032 73.0661 76.0439 74.2974 77.6348 75.1875C79.2257 76.0777 81.0725 76.5225 83.1748 76.5225C85.277 76.5224 87.1146 76.0776 88.6865 75.1875C90.2773 74.2974 91.5171 73.066 92.4072 71.4941C93.2974 69.9222 93.7432 68.1326 93.7432 66.125V29.8184H107.777V67.3467C107.777 71.6837 106.745 75.462 104.681 78.6816C102.616 81.8824 99.7371 84.3636 96.0439 86.125C92.3508 87.8674 88.0611 88.7383 83.1748 88.7383C78.2316 88.7383 73.9129 87.8674 70.2197 86.125C66.5267 84.3636 63.6577 81.8823 61.6123 78.6816C59.5669 75.462 58.544 71.6837 58.5439 67.3467V29.8184H72.6064V66.125ZM51.6758 41.2383H34.0342V88H20.1709V41.2383H2.5V29.8184H51.6758V41.2383ZM151.591 63.3408H152.074V29.8184H166.108V88H154.176L131.022 54.4209H130.653V88H116.591V29.8184H128.693L151.591 63.3408ZM291.256 88H285.688L279.453 70.4717H255.047L248.812 88H243.244L264.409 29.8184H270.091L291.256 88ZM306.54 83.2275H334.268V88H301.228V29.8184H306.54V83.2275ZM351.54 88H346.228V29.8184H351.54V88ZM430.368 88H425.056V29.8184H430.368V88ZM570.993 83.2275H598.721V88H565.681V29.8184H570.993V83.2275ZM468.365 34.0225C464.558 34.0225 461.149 35.0078 458.138 36.9775C455.126 38.9472 452.74 41.788 450.979 45.5C449.236 49.2121 448.365 53.6819 448.365 58.9092C448.365 64.1175 449.236 68.5779 450.979 72.29C452.721 76.0021 455.098 78.8522 458.109 80.8408C461.121 82.8105 464.539 83.7959 468.365 83.7959C472.191 83.7959 475.61 82.8105 478.621 80.8408C481.651 78.8711 484.038 76.0304 485.78 72.3184C487.523 68.5873 488.384 64.1175 488.365 58.9092C488.365 53.7009 487.494 49.2404 485.752 45.5283C484.01 41.7974 481.632 38.9472 478.621 36.9775C475.61 35.0079 472.191 34.0225 468.365 34.0225ZM256.744 65.6992H277.756L267.449 36.7217H267.051L256.744 65.6992ZM523.515 15.2725C523.515 16.7496 523.912 17.9998 524.707 19.0225C525.521 20.0262 526.838 20.5283 528.656 20.5283C530.474 20.5283 531.8 20.0262 532.634 19.0225C533.467 17.9998 533.884 16.7496 533.884 15.2725H538.656C538.656 17.9808 537.756 20.1777 535.957 21.8633C534.177 23.5489 531.743 24.3916 528.656 24.3916C525.607 24.3916 523.192 23.5489 521.412 21.8633C519.632 20.1777 518.741 17.9807 518.741 15.2725H523.515Z" fill="white"/>
<rect y="115" width="662" height="13" fill="#FF4F18"/>
<rect x="231" width="20" height="20" fill="#FF4F18"/>
</svg>
